<?xml version="1.0" encoding="iso-8859-1"?>
<!-- Generator: Adobe Illustrator 19.0.0, SVG Export Plug-In . SVG Version: 6.00 Build 0)  -->
<svg version="1.1" id="Layer_1" xmlns="http://www.w3.org/2000/svg" xmlns:xlink="http://www.w3.org/1999/xlink" x="0px" y="0px"
	 viewBox="0 0 512 512" style="enable-background:new 0 0 512 512;" xml:space="preserve">
<path style="fill:#666666;" d="M365.137,98.721L272.736,6.88c-9.227-9.173-24.243-9.173-33.47,0l-92.464,91.905l10.949,10.882
	l92.397-91.839c3.227-3.206,8.477-3.208,11.705,0l92.335,91.778L365.137,98.721z"/>
<g>
	<path style="fill:#A3A3A3;" d="M256.002,76.358c5.497,0,10.958,0.231,16.377,0.659V58.336c0-8.759-7.165-15.924-15.923-15.924
		h-0.909c-8.758,0-15.923,7.165-15.923,15.924v18.682C245.043,76.588,250.505,76.358,256.002,76.358z"/>
	<path style="fill:#A3A3A3;" d="M256.018,476.801c-0.006,0-0.011,0-0.019,0c-5.497,0-10.958-0.231-16.377-0.661v19.939
		c0,8.757,7.165,15.922,15.923,15.922h0.909c8.758,0,15.923-7.165,15.923-15.922v-19.935
		C266.965,476.572,261.509,476.801,256.018,476.801z"/>
	<path style="fill:#A3A3A3;" d="M54.529,276.574c0-5.251,0.209-10.47,0.609-15.649H35.7c-8.758,0-15.924,7.165-15.924,15.924v0.711
		c0,8.759,7.166,15.924,15.924,15.924h19.547C54.779,287.891,54.529,282.251,54.529,276.574z"/>
	<path style="fill:#A3A3A3;" d="M476.302,260.925h-19.439c0.4,5.182,0.609,10.4,0.609,15.65c0,5.678-0.25,11.314-0.718,16.909
		h19.547c8.758,0,15.924-7.165,15.924-15.924v-0.711C492.226,268.091,485.06,260.925,476.302,260.925z"/>
</g>
<path id="SVGCleanerId_0" style="fill:#F16A5D;" d="M109.9,131.364c-80.69,80.198-80.689,210.23-0.001,290.432
	c80.689,80.2,211.512,80.2,292.202-0.002c80.689-80.2,80.689-210.232,0-290.43C321.413,51.162,190.59,51.162,109.9,131.364z
	 M338.83,358.905c-45.745,45.47-119.913,45.468-165.656,0c-45.744-45.466-45.745-119.185,0-164.651
	c45.745-45.47,119.913-45.47,165.656,0C384.572,239.719,384.574,313.439,338.83,358.905z"/>
<g>
	<path id="SVGCleanerId_0_1_" style="fill:#F16A5D;" d="M109.9,131.364c-80.69,80.198-80.689,210.23-0.001,290.432
		c80.689,80.2,211.512,80.2,292.202-0.002c80.689-80.2,80.689-210.232,0-290.43C321.413,51.162,190.59,51.162,109.9,131.364z
		 M338.83,358.905c-45.745,45.47-119.913,45.468-165.656,0c-45.744-45.466-45.745-119.185,0-164.651
		c45.745-45.47,119.913-45.47,165.656,0C384.572,239.719,384.574,313.439,338.83,358.905z"/>
</g>
<g style="opacity:0.1;">
	<path d="M143.202,421.796c-80.688-80.202-80.689-210.235,0.001-290.433c36.106-35.888,82.251-55.705,129.45-59.473
		c-58.28-4.657-118.169,15.159-162.752,59.473c-80.69,80.198-80.689,210.23-0.001,290.433
		c44.583,44.312,104.471,64.129,162.751,59.471C225.452,477.499,179.307,457.684,143.202,421.796z"/>
</g>
<g>
	<path style="fill:#FFDFC2;" d="M149.917,459.117c-1.112,0-2.231-0.292-3.235-0.89c-14.96-8.908-28.834-19.678-41.238-32.004
		c-12.398-12.325-23.231-26.114-32.199-40.988c-1.485-2.463-1.093-5.614,0.95-7.645l66.932-66.524
		c1.194-1.19,2.803-1.835,4.454-1.835c0.463,0,0.93,0.049,1.391,0.153c2.11,0.475,3.826,1.992,4.548,4.017
		c5.528,15.532,14.311,29.353,26.107,41.078c11.795,11.725,25.698,20.453,41.325,25.947c2.039,0.719,3.565,2.424,4.043,4.52
		c0.478,2.096-0.16,4.289-1.69,5.81l-66.932,66.529C153.16,458.491,151.546,459.117,149.917,459.117z"/>
	<path style="fill:#FFDFC2;" d="M366.419,243.928c-0.463,0-0.93-0.049-1.391-0.153c-2.11-0.478-3.826-1.992-4.548-4.019
		c-5.527-15.53-14.311-29.353-26.107-41.075c-11.795-11.725-25.698-20.455-41.325-25.949c-2.04-0.717-3.565-2.424-4.043-4.52
		c-0.478-2.096,0.16-4.289,1.69-5.811l66.93-66.524c1.216-1.209,2.83-1.836,4.458-1.836c1.112,0,2.231,0.289,3.236,0.888
		c14.963,8.914,28.838,19.684,41.237,32.008c12.4,12.322,23.232,26.112,32.197,40.984c1.485,2.465,1.093,5.616-0.949,7.647
		l-66.932,66.524C369.679,243.283,368.071,243.928,366.419,243.928z"/>
	<path style="fill:#FFDFC2;" d="M362.083,459.117c-1.629,0-3.242-0.627-4.457-1.833l-66.93-66.527
		c-1.53-1.522-2.167-3.715-1.69-5.813c0.478-2.094,2.004-3.802,4.043-4.518c15.629-5.494,29.531-14.224,41.326-25.949
		c11.795-11.721,20.578-25.543,26.107-41.076c0.721-2.025,2.438-3.543,4.547-4.017c0.461-0.104,0.928-0.155,1.392-0.155
		c1.651,0,3.26,0.645,4.454,1.835l66.93,66.524c2.043,2.032,2.435,5.182,0.949,7.647c-8.965,14.871-19.798,28.659-32.197,40.984
		c-12.399,12.325-26.274,23.094-41.237,32.006C364.314,458.825,363.195,459.117,362.083,459.117z"/>
</g>
<g>
	<path style="fill:#A3A3A3;" d="M177.628,354.479c-1.891-1.88-3.697-3.818-5.431-5.804l-41.759,41.759
		c-3.015,3.015-3.015,7.903,0,10.916c1.507,1.506,3.483,2.259,5.458,2.259c1.976,0,3.951-0.753,5.458-2.259l41.772-41.772
		C181.247,357.946,179.41,356.25,177.628,354.479z"/>
	<path style="fill:#A3A3A3;" d="M334.374,198.68c1.623,1.612,3.182,3.267,4.691,4.959l42.499-42.5c3.015-3.015,3.015-7.903,0-10.916
		c-3.015-3.012-7.902-3.012-10.915,0l-42.62,42.62C330.204,194.698,332.323,196.642,334.374,198.68z"/>
</g>
<path style="fill:#FFDFC2;" d="M145.582,243.928c-1.652,0-3.26-0.645-4.454-1.835l-66.932-66.524
	c-2.043-2.03-2.435-5.182-0.949-7.644c8.964-14.871,19.797-28.662,32.197-40.986c12.401-12.329,26.275-23.096,41.237-32.006
	c1.004-0.598,2.124-0.888,3.235-0.888c1.629,0,3.242,0.625,4.456,1.833l66.931,66.524c1.53,1.52,2.167,3.715,1.69,5.811
	c-0.478,2.096-2.003,3.802-4.043,4.52c-15.627,5.496-29.531,14.224-41.325,25.949c-11.796,11.725-20.579,25.545-26.106,41.074
	c-0.722,2.028-2.438,3.543-4.547,4.021C146.512,243.878,146.046,243.928,145.582,243.928z"/>
<g>
	<path style="fill:#A3A3A3;" d="M141.353,150.223c-3.013-3.012-7.9-3.012-10.915,0c-3.015,3.015-3.015,7.903,0,10.916l42.5,42.5
		c1.508-1.692,3.068-3.347,4.69-4.959c2.051-2.039,4.169-3.982,6.346-5.837L141.353,150.223z"/>
	<path style="fill:#A3A3A3;" d="M339.806,348.674c-1.736,1.985-3.54,3.925-5.431,5.804c-1.783,1.771-3.618,3.467-5.496,5.102
		l41.77,41.77c1.507,1.506,3.482,2.259,5.457,2.259c1.975,0,3.951-0.753,5.457-2.259c3.015-3.015,3.015-7.903,0-10.916
		L339.806,348.674z"/>
</g>
<g>
</g>
<g>
</g>
<g>
</g>
<g>
</g>
<g>
</g>
<g>
</g>
<g>
</g>
<g>
</g>
<g>
</g>
<g>
</g>
<g>
</g>
<g>
</g>
<g>
</g>
<g>
</g>
<g>
</g>
</svg>
